<svg width="200" height="200" viewBox="0 0 200 200" fill="none" xmlns="http://www.w3.org/2000/svg">
<path d="M131.319 22.3776C127.771 22.5763 124.344 23.7418 121.411 25.748C118.477 27.7542 116.149 30.5246 114.676 33.7593L114.26 34.671L76.859 116.687L44.3288 46.3652L37.3487 31.2851C36.2296 28.8546 34.4379 26.7952 32.1856 25.3506C29.9333 23.906 27.3145 23.1365 24.6387 23.133H5.20901C3.8275 23.133 2.50264 23.6817 1.52576 24.6586C0.548881 25.6355 0 26.9605 0 28.342V175.835C0 177.217 0.548881 178.542 1.52576 179.518C2.50264 180.495 3.8275 181.044 5.20901 181.044H11.6681C13.0497 181.044 14.3747 180.495 15.3516 179.518C16.3284 178.542 16.8772 177.217 16.8772 175.835V59.7524L52.8975 137.575C56.1271 144.79 58.3931 148.566 61.4404 150.441C63.9375 151.836 66.7944 152.453 69.6445 152.212C77.6143 152.212 80.5574 149.452 86.2873 137.184C86.5217 136.611 86.7561 136.064 87.0426 135.491L123.766 54.3871V175.028C123.773 176.621 124.409 178.148 125.536 179.274C126.663 180.401 128.189 181.037 129.783 181.044H152.103C153.699 181.044 155.229 180.41 156.358 179.282C157.486 178.154 158.12 176.623 158.12 175.028V40.8958H193.749C195.407 40.8958 196.997 40.2372 198.169 39.065C199.341 37.8927 200 36.3027 200 34.6449V25.1905C199.998 24.3402 199.822 23.4993 199.484 22.7192C199.146 21.9391 198.652 21.2363 198.033 20.6536C197.414 20.0709 196.682 19.6208 195.883 19.3305C195.084 19.0403 194.233 18.9161 193.385 18.9657L131.319 22.3776Z" fill="#FEFCF6"/>
</svg>
